<mxfile host="app.diagrams.net" modified="2024-03-15T11:23:17.457Z" agent="Mozilla/5.0 (Windows NT 10.0; Win64; x64) AppleWebKit/537.36 (KHTML, like Gecko) Chrome/122.0.0.0 Safari/537.36" etag="NyFrvGPNYDRJtmW3gR8g" version="24.0.7" type="github">
  <diagram name="Page-1" id="13e1069c-82ec-6db2-03f1-153e76fe0fe0">
    <mxGraphModel dx="1593" dy="829" grid="1" gridSize="10" guides="1" tooltips="1" connect="1" arrows="1" fold="1" page="1" pageScale="1" pageWidth="1100" pageHeight="850" background="none" math="0" shadow="0">
      <root>
        <mxCell id="0" />
        <mxCell id="1" parent="0" />
        <mxCell id="hzYYyXt_HhxSGGgCE7m4-3" value="" style="rounded=0;whiteSpace=wrap;html=1;" parent="1" vertex="1">
          <mxGeometry x="60" y="10" width="940" height="860" as="geometry" />
        </mxCell>
        <mxCell id="hzYYyXt_HhxSGGgCE7m4-4" value="Мобилно приложение" style="shape=umlLifeline;perimeter=lifelinePerimeter;whiteSpace=wrap;html=1;container=1;collapsible=0;recursiveResize=0;outlineConnect=0;rounded=1;shadow=0;comic=0;labelBackgroundColor=none;strokeWidth=1;fontFamily=Verdana;fontSize=12;align=center;" parent="1" vertex="1">
          <mxGeometry x="240" y="80" width="100" height="790" as="geometry" />
        </mxCell>
        <mxCell id="hzYYyXt_HhxSGGgCE7m4-5" value="" style="html=1;points=[];perimeter=orthogonalPerimeter;rounded=0;shadow=0;comic=0;labelBackgroundColor=none;strokeWidth=1;fontFamily=Verdana;fontSize=12;align=center;" parent="hzYYyXt_HhxSGGgCE7m4-4" vertex="1">
          <mxGeometry x="45" y="100" width="10" height="130" as="geometry" />
        </mxCell>
        <mxCell id="6vjCk70379Mgik5v1s1r-39" value="" style="html=1;points=[];perimeter=orthogonalPerimeter;rounded=0;shadow=0;comic=0;labelBackgroundColor=none;strokeWidth=1;fontFamily=Verdana;fontSize=12;align=center;" vertex="1" parent="hzYYyXt_HhxSGGgCE7m4-4">
          <mxGeometry x="45" y="590" width="10" height="110" as="geometry" />
        </mxCell>
        <mxCell id="hzYYyXt_HhxSGGgCE7m4-6" value="Шлюз на програмните интерфейси" style="shape=umlLifeline;perimeter=lifelinePerimeter;whiteSpace=wrap;html=1;container=1;collapsible=0;recursiveResize=0;outlineConnect=0;rounded=1;shadow=0;comic=0;labelBackgroundColor=none;strokeWidth=1;fontFamily=Verdana;fontSize=12;align=center;" parent="1" vertex="1">
          <mxGeometry x="400" y="80" width="100" height="790" as="geometry" />
        </mxCell>
        <mxCell id="hzYYyXt_HhxSGGgCE7m4-7" value="" style="html=1;points=[];perimeter=orthogonalPerimeter;rounded=0;shadow=0;comic=0;labelBackgroundColor=none;strokeWidth=1;fontFamily=Verdana;fontSize=12;align=center;" parent="hzYYyXt_HhxSGGgCE7m4-6" vertex="1">
          <mxGeometry x="45" y="120" width="10" height="110" as="geometry" />
        </mxCell>
        <mxCell id="6vjCk70379Mgik5v1s1r-8" value="" style="html=1;verticalAlign=bottom;endArrow=open;dashed=1;endSize=8;labelBackgroundColor=none;fontFamily=Verdana;fontSize=12;edgeStyle=elbowEdgeStyle;elbow=vertical;" edge="1" parent="hzYYyXt_HhxSGGgCE7m4-6">
          <mxGeometry relative="1" as="geometry">
            <mxPoint x="50" y="240" as="targetPoint" />
            <Array as="points" />
            <mxPoint x="185" y="240" as="sourcePoint" />
          </mxGeometry>
        </mxCell>
        <mxCell id="6vjCk70379Mgik5v1s1r-15" value="&lt;br&gt;&lt;span style=&quot;color: rgb(0, 0, 0); font-family: Helvetica; font-size: 11px; font-style: normal; font-variant-ligatures: normal; font-variant-caps: normal; font-weight: 400; letter-spacing: normal; orphans: 2; text-align: center; text-indent: 0px; text-transform: none; widows: 2; word-spacing: 0px; -webkit-text-stroke-width: 0px; background-color: rgb(255, 255, 255); text-decoration-thickness: initial; text-decoration-style: initial; text-decoration-color: initial; float: none; display: inline !important;&quot;&gt;Създава и валидира&lt;/span&gt;&lt;br style=&quot;border-color: var(--border-color); color: rgb(0, 0, 0); font-family: Helvetica; font-size: 11px; font-style: normal; font-variant-ligatures: normal; font-variant-caps: normal; font-weight: 400; letter-spacing: normal; orphans: 2; text-align: center; text-indent: 0px; text-transform: none; widows: 2; word-spacing: 0px; -webkit-text-stroke-width: 0px; text-decoration-thickness: initial; text-decoration-style: initial; text-decoration-color: initial;&quot;&gt;&lt;span style=&quot;color: rgb(0, 0, 0); font-family: Helvetica; font-size: 11px; font-style: normal; font-variant-ligatures: normal; font-variant-caps: normal; font-weight: 400; letter-spacing: normal; orphans: 2; text-align: center; text-indent: 0px; text-transform: none; widows: 2; word-spacing: 0px; -webkit-text-stroke-width: 0px; background-color: rgb(255, 255, 255); text-decoration-thickness: initial; text-decoration-style: initial; text-decoration-color: initial; float: none; display: inline !important;&quot;&gt;данни&lt;/span&gt;&lt;br&gt;" style="html=1;verticalAlign=bottom;endArrow=block;entryX=0;entryY=0;labelBackgroundColor=none;fontFamily=Verdana;fontSize=12;edgeStyle=elbowEdgeStyle;elbow=vertical;" edge="1" parent="hzYYyXt_HhxSGGgCE7m4-6">
          <mxGeometry relative="1" as="geometry">
            <mxPoint x="55" y="290" as="sourcePoint" />
            <mxPoint x="185" y="290" as="targetPoint" />
          </mxGeometry>
        </mxCell>
        <mxCell id="hzYYyXt_HhxSGGgCE7m4-8" value="Уеб услуга за почръки" style="shape=umlLifeline;perimeter=lifelinePerimeter;whiteSpace=wrap;html=1;container=1;collapsible=0;recursiveResize=0;outlineConnect=0;rounded=1;shadow=0;comic=0;labelBackgroundColor=none;strokeWidth=1;fontFamily=Verdana;fontSize=12;align=center;" parent="1" vertex="1">
          <mxGeometry x="540" y="80" width="100" height="790" as="geometry" />
        </mxCell>
        <mxCell id="hzYYyXt_HhxSGGgCE7m4-27" value="" style="html=1;points=[];perimeter=orthogonalPerimeter;rounded=0;shadow=0;comic=0;labelBackgroundColor=none;strokeWidth=1;fontFamily=Verdana;fontSize=12;align=center;" parent="hzYYyXt_HhxSGGgCE7m4-8" vertex="1">
          <mxGeometry x="45" y="530" width="10" height="80" as="geometry" />
        </mxCell>
        <mxCell id="hzYYyXt_HhxSGGgCE7m4-17" value="" style="html=1;points=[];perimeter=orthogonalPerimeter;rounded=0;shadow=0;comic=0;labelBackgroundColor=none;strokeWidth=1;fontFamily=Verdana;fontSize=12;align=center;" parent="hzYYyXt_HhxSGGgCE7m4-8" vertex="1">
          <mxGeometry x="45" y="290" width="10" height="140" as="geometry" />
        </mxCell>
        <mxCell id="hzYYyXt_HhxSGGgCE7m4-31" value="Обновяване &lt;br&gt;на данните" style="html=1;verticalAlign=bottom;endArrow=block;labelBackgroundColor=none;fontFamily=Verdana;fontSize=12;elbow=vertical;edgeStyle=orthogonalEdgeStyle;curved=1;entryX=1;entryY=0.286;entryPerimeter=0;exitX=1.038;exitY=0.345;exitPerimeter=0;" parent="hzYYyXt_HhxSGGgCE7m4-8" edge="1">
          <mxGeometry x="0.1872" y="20" relative="1" as="geometry">
            <mxPoint x="55.003333333333444" y="360" as="sourcePoint" />
            <mxPoint x="60.003333333333444" y="398.33333333333337" as="targetPoint" />
            <Array as="points">
              <mxPoint x="109.66999999999996" y="360" />
              <mxPoint x="109.66999999999996" y="398" />
            </Array>
            <mxPoint as="offset" />
          </mxGeometry>
        </mxCell>
        <mxCell id="hzYYyXt_HhxSGGgCE7m4-10" value="Уеб услуга&lt;div&gt;за&amp;nbsp;доставки&lt;/div&gt;" style="shape=umlLifeline;perimeter=lifelinePerimeter;whiteSpace=wrap;html=1;container=1;collapsible=0;recursiveResize=0;outlineConnect=0;rounded=1;shadow=0;comic=0;labelBackgroundColor=none;strokeWidth=1;fontFamily=Verdana;fontSize=12;align=center;" parent="1" vertex="1">
          <mxGeometry x="680" y="80" width="100" height="790" as="geometry" />
        </mxCell>
        <mxCell id="hzYYyXt_HhxSGGgCE7m4-14" value="" style="html=1;points=[];perimeter=orthogonalPerimeter;rounded=0;shadow=0;comic=0;labelBackgroundColor=none;strokeWidth=1;fontFamily=Verdana;fontSize=12;align=center;" parent="hzYYyXt_HhxSGGgCE7m4-10" vertex="1">
          <mxGeometry x="45" y="145" width="10" height="40" as="geometry" />
        </mxCell>
        <mxCell id="6vjCk70379Mgik5v1s1r-19" value="" style="html=1;points=[];perimeter=orthogonalPerimeter;rounded=0;shadow=0;comic=0;labelBackgroundColor=none;strokeWidth=1;fontFamily=Verdana;fontSize=12;align=center;" vertex="1" parent="hzYYyXt_HhxSGGgCE7m4-10">
          <mxGeometry x="45" y="470" width="10" height="140" as="geometry" />
        </mxCell>
        <mxCell id="6vjCk70379Mgik5v1s1r-34" value="" style="html=1;verticalAlign=bottom;endArrow=block;labelBackgroundColor=none;fontFamily=Verdana;fontSize=12;edgeStyle=elbowEdgeStyle;elbow=horizontal;" edge="1" parent="hzYYyXt_HhxSGGgCE7m4-10">
          <mxGeometry relative="1" as="geometry">
            <mxPoint x="185" y="590" as="sourcePoint" />
            <Array as="points">
              <mxPoint x="185" y="590" />
            </Array>
            <mxPoint x="60" y="590" as="targetPoint" />
          </mxGeometry>
        </mxCell>
        <mxCell id="6vjCk70379Mgik5v1s1r-35" value="Обновява статус&lt;div&gt;&amp;nbsp;на доставка&lt;/div&gt;" style="edgeLabel;html=1;align=center;verticalAlign=middle;resizable=0;points=[];" vertex="1" connectable="0" parent="6vjCk70379Mgik5v1s1r-34">
          <mxGeometry x="-0.1619" y="-1" relative="1" as="geometry">
            <mxPoint x="-11" y="-19" as="offset" />
          </mxGeometry>
        </mxCell>
        <mxCell id="hzYYyXt_HhxSGGgCE7m4-11" value="Вътрешни системи" style="shape=umlLifeline;perimeter=lifelinePerimeter;whiteSpace=wrap;html=1;container=1;collapsible=0;recursiveResize=0;outlineConnect=0;rounded=1;shadow=0;comic=0;labelBackgroundColor=none;strokeWidth=1;fontFamily=Verdana;fontSize=12;align=center;" parent="1" vertex="1">
          <mxGeometry x="820" y="80" width="100" height="790" as="geometry" />
        </mxCell>
        <mxCell id="hzYYyXt_HhxSGGgCE7m4-19" value="" style="html=1;points=[];perimeter=orthogonalPerimeter;rounded=0;shadow=0;comic=0;labelBackgroundColor=none;strokeColor=#000000;strokeWidth=1;fillColor=#FFFFFF;fontFamily=Verdana;fontSize=12;fontColor=#000000;align=center;" parent="hzYYyXt_HhxSGGgCE7m4-11" vertex="1">
          <mxGeometry x="45" y="305" width="10" height="30" as="geometry" />
        </mxCell>
        <mxCell id="6vjCk70379Mgik5v1s1r-30" value="" style="html=1;points=[];perimeter=orthogonalPerimeter;rounded=0;shadow=0;comic=0;labelBackgroundColor=none;strokeWidth=1;fontFamily=Verdana;fontSize=12;align=center;" vertex="1" parent="hzYYyXt_HhxSGGgCE7m4-11">
          <mxGeometry x="45" y="530" width="10" height="70" as="geometry" />
        </mxCell>
        <mxCell id="6vjCk70379Mgik5v1s1r-31" value="Обновяване &lt;br&gt;на данните&lt;div&gt;от IoT&lt;/div&gt;" style="html=1;verticalAlign=bottom;endArrow=block;labelBackgroundColor=none;fontFamily=Verdana;fontSize=12;elbow=vertical;edgeStyle=orthogonalEdgeStyle;curved=1;entryX=1;entryY=0.286;entryPerimeter=0;exitX=1.038;exitY=0.345;exitPerimeter=0;" edge="1" parent="hzYYyXt_HhxSGGgCE7m4-11">
          <mxGeometry x="0.1872" y="20" relative="1" as="geometry">
            <mxPoint x="55.003333333333444" y="540" as="sourcePoint" />
            <mxPoint x="60.003333333333444" y="578.3333333333334" as="targetPoint" />
            <Array as="points">
              <mxPoint x="109.66999999999996" y="540" />
              <mxPoint x="109.66999999999996" y="578" />
            </Array>
            <mxPoint as="offset" />
          </mxGeometry>
        </mxCell>
        <mxCell id="hzYYyXt_HhxSGGgCE7m4-12" value="" style="html=1;points=[];perimeter=orthogonalPerimeter;rounded=0;shadow=0;comic=0;labelBackgroundColor=none;strokeWidth=1;fontFamily=Verdana;fontSize=12;align=center;" parent="1" vertex="1">
          <mxGeometry x="585" y="220" width="10" height="110" as="geometry" />
        </mxCell>
        <mxCell id="hzYYyXt_HhxSGGgCE7m4-13" value="Извлича информация&lt;br style=&quot;border-color: var(--border-color);&quot;&gt;&amp;nbsp;за поръчки &lt;br&gt;и доставки" style="html=1;verticalAlign=bottom;endArrow=block;labelBackgroundColor=none;fontFamily=Verdana;fontSize=12;edgeStyle=elbowEdgeStyle;elbow=vertical;" parent="1" source="hzYYyXt_HhxSGGgCE7m4-7" target="hzYYyXt_HhxSGGgCE7m4-12" edge="1">
          <mxGeometry relative="1" as="geometry">
            <mxPoint x="510" y="220" as="sourcePoint" />
            <Array as="points">
              <mxPoint x="460" y="220" />
            </Array>
          </mxGeometry>
        </mxCell>
        <mxCell id="hzYYyXt_HhxSGGgCE7m4-20" value="Заявка към вътрешни системи" style="html=1;verticalAlign=bottom;endArrow=block;entryX=0;entryY=0;labelBackgroundColor=none;fontFamily=Verdana;fontSize=12;" parent="1" source="hzYYyXt_HhxSGGgCE7m4-17" target="hzYYyXt_HhxSGGgCE7m4-19" edge="1">
          <mxGeometry relative="1" as="geometry">
            <mxPoint x="930" y="340" as="sourcePoint" />
          </mxGeometry>
        </mxCell>
        <mxCell id="hzYYyXt_HhxSGGgCE7m4-21" value="Резултат&amp;nbsp;" style="html=1;verticalAlign=bottom;endArrow=open;dashed=1;endSize=8;exitX=0;exitY=0.95;labelBackgroundColor=none;fontFamily=Verdana;fontSize=12;" parent="1" source="hzYYyXt_HhxSGGgCE7m4-19" target="hzYYyXt_HhxSGGgCE7m4-17" edge="1">
          <mxGeometry relative="1" as="geometry">
            <mxPoint x="930" y="416" as="targetPoint" />
          </mxGeometry>
        </mxCell>
        <mxCell id="hzYYyXt_HhxSGGgCE7m4-25" value="Отваря приложение&lt;div&gt;след вход&lt;/div&gt;" style="html=1;verticalAlign=bottom;endArrow=block;entryX=0;entryY=0;labelBackgroundColor=none;fontFamily=Verdana;fontSize=12;edgeStyle=elbowEdgeStyle;elbow=vertical;" parent="1" source="hzYYyXt_HhxSGGgCE7m4-40" target="hzYYyXt_HhxSGGgCE7m4-5" edge="1">
          <mxGeometry relative="1" as="geometry">
            <mxPoint x="220" y="190" as="sourcePoint" />
          </mxGeometry>
        </mxCell>
        <mxCell id="hzYYyXt_HhxSGGgCE7m4-26" value="" style="html=1;verticalAlign=bottom;endArrow=block;entryX=0;entryY=0;labelBackgroundColor=none;fontFamily=Verdana;fontSize=12;edgeStyle=elbowEdgeStyle;elbow=vertical;" parent="1" source="hzYYyXt_HhxSGGgCE7m4-5" target="hzYYyXt_HhxSGGgCE7m4-7" edge="1">
          <mxGeometry relative="1" as="geometry">
            <mxPoint x="370" y="200" as="sourcePoint" />
          </mxGeometry>
        </mxCell>
        <mxCell id="hzYYyXt_HhxSGGgCE7m4-47" value="Зарежда начален екран" style="edgeLabel;html=1;align=center;verticalAlign=middle;resizable=0;points=[];" parent="hzYYyXt_HhxSGGgCE7m4-26" vertex="1" connectable="0">
          <mxGeometry x="-0.12" y="9" relative="1" as="geometry">
            <mxPoint as="offset" />
          </mxGeometry>
        </mxCell>
        <mxCell id="hzYYyXt_HhxSGGgCE7m4-38" value="" style="edgeStyle=orthogonalEdgeStyle;rounded=0;orthogonalLoop=1;jettySize=auto;html=1;" parent="1" source="hzYYyXt_HhxSGGgCE7m4-39" target="hzYYyXt_HhxSGGgCE7m4-40" edge="1">
          <mxGeometry relative="1" as="geometry" />
        </mxCell>
        <mxCell id="hzYYyXt_HhxSGGgCE7m4-39" value="Клиент" style="shape=umlActor;verticalLabelPosition=bottom;verticalAlign=top;html=1;outlineConnect=0;" parent="1" vertex="1">
          <mxGeometry x="135" y="40" width="30" height="70" as="geometry" />
        </mxCell>
        <mxCell id="hzYYyXt_HhxSGGgCE7m4-40" value="" style="html=1;points=[];perimeter=orthogonalPerimeter;rounded=0;shadow=0;comic=0;labelBackgroundColor=none;strokeWidth=1;fontFamily=Verdana;fontSize=12;align=center;" parent="1" vertex="1">
          <mxGeometry x="145" y="180" width="10" height="440" as="geometry" />
        </mxCell>
        <mxCell id="hzYYyXt_HhxSGGgCE7m4-18" value="Заявка за нова поръчка" style="html=1;verticalAlign=bottom;endArrow=block;labelBackgroundColor=none;fontFamily=Verdana;fontSize=12;" parent="1" edge="1">
          <mxGeometry relative="1" as="geometry">
            <mxPoint x="160" y="360" as="sourcePoint" />
            <mxPoint x="450" y="360" as="targetPoint" />
          </mxGeometry>
        </mxCell>
        <mxCell id="hzYYyXt_HhxSGGgCE7m4-51" value="Връща резултат" style="html=1;verticalAlign=bottom;endArrow=open;dashed=1;endSize=8;labelBackgroundColor=none;fontFamily=Verdana;fontSize=12;edgeStyle=elbowEdgeStyle;elbow=vertical;" parent="1" edge="1">
          <mxGeometry relative="1" as="geometry">
            <mxPoint x="160" y="480" as="targetPoint" />
            <Array as="points">
              <mxPoint x="539" y="479.52" />
            </Array>
            <mxPoint x="584" y="479.52" as="sourcePoint" />
          </mxGeometry>
        </mxCell>
        <mxCell id="hzYYyXt_HhxSGGgCE7m4-24" value="&amp;nbsp; &amp;nbsp; &amp;nbsp; &amp;nbsp; &amp;nbsp; &amp;nbsp; &amp;nbsp; &amp;nbsp; &amp;nbsp; &amp;nbsp; &amp;nbsp; &amp;nbsp; &amp;nbsp; &amp;nbsp; &amp;nbsp; &amp;nbsp; &amp;nbsp;Връща резултат" style="html=1;verticalAlign=bottom;endArrow=open;dashed=1;endSize=8;labelBackgroundColor=none;fontFamily=Verdana;fontSize=12;edgeStyle=elbowEdgeStyle;elbow=vertical;" parent="1" edge="1">
          <mxGeometry relative="1" as="geometry">
            <mxPoint x="150" y="320" as="targetPoint" />
            <Array as="points" />
            <mxPoint x="450" y="320" as="sourcePoint" />
          </mxGeometry>
        </mxCell>
        <mxCell id="6vjCk70379Mgik5v1s1r-13" value="" style="html=1;verticalAlign=bottom;endArrow=block;labelBackgroundColor=none;fontFamily=Verdana;fontSize=12;edgeStyle=elbowEdgeStyle;elbow=vertical;" edge="1" parent="1">
          <mxGeometry relative="1" as="geometry">
            <mxPoint x="595" y="220" as="sourcePoint" />
            <Array as="points">
              <mxPoint x="600" y="220" />
            </Array>
            <mxPoint x="725" y="220" as="targetPoint" />
          </mxGeometry>
        </mxCell>
        <mxCell id="6vjCk70379Mgik5v1s1r-14" value="" style="html=1;verticalAlign=bottom;endArrow=open;dashed=1;endSize=8;labelBackgroundColor=none;fontFamily=Verdana;fontSize=12;edgeStyle=elbowEdgeStyle;elbow=vertical;" edge="1" parent="1">
          <mxGeometry relative="1" as="geometry">
            <mxPoint x="595" y="290" as="targetPoint" />
            <Array as="points" />
            <mxPoint x="730" y="290" as="sourcePoint" />
          </mxGeometry>
        </mxCell>
        <mxCell id="6vjCk70379Mgik5v1s1r-17" value="" style="html=1;verticalAlign=bottom;endArrow=block;labelBackgroundColor=none;fontFamily=Verdana;fontSize=12;edgeStyle=elbowEdgeStyle;elbow=horizontal;" edge="1" parent="1">
          <mxGeometry relative="1" as="geometry">
            <mxPoint x="870" y="550" as="sourcePoint" />
            <Array as="points">
              <mxPoint x="870" y="550" />
            </Array>
            <mxPoint x="730" y="550" as="targetPoint" />
          </mxGeometry>
        </mxCell>
        <mxCell id="6vjCk70379Mgik5v1s1r-18" value="Назначава се доставка&lt;div&gt;за поръчка&lt;/div&gt;" style="edgeLabel;html=1;align=center;verticalAlign=middle;resizable=0;points=[];" vertex="1" connectable="0" parent="6vjCk70379Mgik5v1s1r-17">
          <mxGeometry x="-0.1619" y="-1" relative="1" as="geometry">
            <mxPoint x="-11" y="-19" as="offset" />
          </mxGeometry>
        </mxCell>
        <mxCell id="6vjCk70379Mgik5v1s1r-23" value="Актуализира информация" style="html=1;verticalAlign=bottom;endArrow=open;dashed=1;endSize=8;labelBackgroundColor=none;fontFamily=Verdana;fontSize=12;edgeStyle=elbowEdgeStyle;elbow=vertical;" edge="1" parent="1">
          <mxGeometry relative="1" as="geometry">
            <mxPoint x="300" y="680" as="targetPoint" />
            <Array as="points">
              <mxPoint x="540" y="680" />
            </Array>
            <mxPoint x="585" y="680" as="sourcePoint" />
          </mxGeometry>
        </mxCell>
        <mxCell id="6vjCk70379Mgik5v1s1r-26" value="" style="endArrow=none;html=1;rounded=0;exitX=0.095;exitY=1;exitDx=0;exitDy=0;exitPerimeter=0;entryX=0.095;entryY=0.709;entryDx=0;entryDy=0;entryPerimeter=0;" edge="1" parent="1" source="hzYYyXt_HhxSGGgCE7m4-3" target="hzYYyXt_HhxSGGgCE7m4-3">
          <mxGeometry width="50" height="50" relative="1" as="geometry">
            <mxPoint x="145.94999999999993" y="710.04" as="sourcePoint" />
            <mxPoint x="175" y="720" as="targetPoint" />
          </mxGeometry>
        </mxCell>
        <mxCell id="6vjCk70379Mgik5v1s1r-20" value="" style="html=1;verticalAlign=bottom;endArrow=block;labelBackgroundColor=none;fontFamily=Verdana;fontSize=12;edgeStyle=elbowEdgeStyle;elbow=horizontal;" edge="1" parent="1">
          <mxGeometry relative="1" as="geometry">
            <mxPoint x="715" y="650" as="sourcePoint" />
            <Array as="points">
              <mxPoint x="715" y="650" />
            </Array>
            <mxPoint x="600" y="650" as="targetPoint" />
          </mxGeometry>
        </mxCell>
        <mxCell id="6vjCk70379Mgik5v1s1r-21" value="Обновява се статус&lt;div&gt;&amp;nbsp;на поръчка&lt;/div&gt;" style="edgeLabel;html=1;align=center;verticalAlign=middle;resizable=0;points=[];" vertex="1" connectable="0" parent="6vjCk70379Mgik5v1s1r-20">
          <mxGeometry x="-0.1619" y="-1" relative="1" as="geometry">
            <mxPoint x="-7" y="-29" as="offset" />
          </mxGeometry>
        </mxCell>
        <mxCell id="6vjCk70379Mgik5v1s1r-38" value="Изпраща&amp;nbsp;&lt;div&gt;насочени известия&lt;br&gt;&lt;/div&gt;" style="html=1;verticalAlign=bottom;endArrow=open;dashed=1;endSize=8;labelBackgroundColor=none;fontFamily=Verdana;fontSize=12;edgeStyle=elbowEdgeStyle;elbow=vertical;" edge="1" parent="1">
          <mxGeometry relative="1" as="geometry">
            <mxPoint x="150" y="750" as="targetPoint" />
            <Array as="points">
              <mxPoint x="250" y="750" />
            </Array>
            <mxPoint x="280" y="750" as="sourcePoint" />
          </mxGeometry>
        </mxCell>
      </root>
    </mxGraphModel>
  </diagram>
</mxfile>
